<svg width="512" height="512" viewBox="100 100 480 480" fill="none" xmlns="http://www.w3.org/2000/svg">
  <!-- LEFT HORN -->
  <polygon points="220,248 218,218 168,155" fill="#d4a017"/>
  <polygon points="220,248 168,155 205,230" fill="#e8c840" opacity="0.7"/>
  <polygon points="218,218 168,155 205,230" fill="#b8860b" opacity="0.8"/>
  <line x1="205" y1="230" x2="168" y2="155" stroke="#f5e680" stroke-width="1" opacity="0.4"/>
  <polygon points="222,250 218,218 215,218 219,250" fill="#c9960c" opacity="0.6"/>
  <!-- RIGHT HORN -->
  <polygon points="460,248 462,218 512,155" fill="#d4a017"/>
  <polygon points="460,248 512,155 475,230" fill="#e8c840" opacity="0.7"/>
  <polygon points="462,218 512,155 475,230" fill="#b8860b" opacity="0.8"/>
  <line x1="475" y1="230" x2="512" y2="155" stroke="#f5e680" stroke-width="1" opacity="0.4"/>
  <polygon points="458,250 462,218 465,218 461,250" fill="#c9960c" opacity="0.6"/>
  <!-- PAVILION (chin/jaw) -->
  <polygon points="340,530 250,380 230,340 450,340 430,380" fill="#4d0c1a"/>
  <polygon points="340,530 250,380 290,380" fill="#5c1220"/>
  <polygon points="340,530 290,380 340,370" fill="#6a1525"/>
  <polygon points="340,530 340,370 390,380" fill="#5c1220"/>
  <polygon points="340,530 390,380 430,380" fill="#4d0c1a"/>
  <!-- GIRDLE (visor band) -->
  <rect x="220" y="330" width="240" height="16" rx="2" fill="#2a2a40" opacity="0.85"/>
  <rect x="220" y="330" width="240" height="16" rx="2" fill="none" stroke="#555555" stroke-width="0.5" opacity="0.4"/>
  <g fill="#888888" opacity="0.6">
    <circle cx="255" cy="338" r="3"/><circle cx="285" cy="338" r="3"/>
    <circle cx="315" cy="338" r="3"/><circle cx="345" cy="338" r="3"/>
    <circle cx="375" cy="338" r="3"/><circle cx="405" cy="338" r="3"/>
  </g>
  <g fill="#bbbbbb" opacity="0.3">
    <circle cx="254" cy="337" r="1.3"/><circle cx="284" cy="337" r="1.3"/>
    <circle cx="314" cy="337" r="1.3"/><circle cx="344" cy="337" r="1.3"/>
    <circle cx="374" cy="337" r="1.3"/><circle cx="404" cy="337" r="1.3"/>
  </g>
  <!-- CROWN FACETS -->
  <polygon points="340,130 460,250 460,330 220,330 220,250" fill="#7b1c2a"/>
  <polygon points="340,130 410,195 340,250 270,195" fill="#d4374b"/>
  <polygon points="340,140 390,190 340,235 290,190" fill="#e85a6e" opacity="0.6"/>
  <polygon points="220,250 270,195 220,330" fill="#6a1525"/>
  <polygon points="460,250 410,195 460,330" fill="#6a1525"/>
  <polygon points="270,195 340,250 220,330 220,250" fill="#8c2234" opacity="0.8"/>
  <polygon points="410,195 340,250 460,330 460,250" fill="#8c2234" opacity="0.8"/>
  <!-- TABLE (top facet) -->
  <polygon points="340,155 385,185 340,215 295,185" fill="#ff7088" opacity="0.45"/>
  <!-- Crown highlight -->
  <line x1="280" y1="200" x2="340" y2="140" stroke="#ff9db0" stroke-width="1" opacity="0.3"/>
  <line x1="340" y1="140" x2="400" y2="200" stroke="#ff9db0" stroke-width="1" opacity="0.2"/>
  <!-- EYES -->
  <ellipse cx="300" cy="308" rx="12" ry="8" fill="#1a0a10"/>
  <circle cx="296" cy="305" r="2" fill="#ffffff" opacity="0.6"/>
  <ellipse cx="380" cy="308" rx="12" ry="8" fill="#1a0a10"/>
  <circle cx="376" cy="305" r="2" fill="#ffffff" opacity="0.6"/>
</svg>
